<?xml version="1.0" encoding="UTF-8"?>
<svg id="Calque_1" xmlns="http://www.w3.org/2000/svg" version="1.1" viewBox="0 0 48 48">
  <!-- Generator: Adobe Illustrator 29.8.2, SVG Export Plug-In . SVG Version: 2.1.1 Build 3)  -->
  <defs>
    <style>
      .st0 {
        fill: #fff;
      }

      .st1 {
        fill: #97b181;
        stroke: #000;
        stroke-miterlimit: 10;
        stroke-width: .25px;
      }
    </style>
  </defs>
  <path class="st1" d="M48.02,8.07c.06.69.36,5.23-3.12,8.83-3.89,4.02-9.16,3.39-9.71,3.32-.05-.53-.44-5.9,3.83-9.58,3.79-3.26,8.33-2.67,9-2.57Z"/>
  <path class="st0" d="M35.18,20.23c2.82-5.26,7.33-9.77,12.83-12.16-5.35,2.68-9.74,7.06-12.83,12.16h0Z"/>
  <path d="M35.01,6.32v30.27c0,1.61.04,3.44.15,4.67h-2.95l-.15-3.14h-.07c-1.01,2.02-3.21,3.55-6.17,3.55-4.37,0-7.74-3.7-7.74-9.19-.04-6.02,3.7-9.72,8.11-9.72,2.77,0,4.63,1.31,5.46,2.77h.07V6.32h3.29ZM31.72,30.54c0-.41-.04-.97-.15-1.38-.49-2.09-2.28-3.81-4.75-3.81-3.4,0-5.42,2.99-5.42,6.99,0,3.66,1.79,6.69,5.34,6.69,2.2,0,4.22-1.46,4.82-3.92.11-.45.15-.9.15-1.42v-3.14h.01Z"/>
  <path class="st1" d="M11.39,41.26l-.26-2.28h-.11c-1.01,1.42-2.95,2.69-5.53,2.69-3.67.01-5.54-2.57-5.54-5.19,0-4.37,3.89-6.76,10.87-6.73v-.37c0-1.49-.41-4.19-4.11-4.19-1.68,0-3.44.52-4.71,1.35l-.75-2.17c1.49-.97,3.66-1.61,5.94-1.61,5.53,0,6.88,3.77,6.88,7.4v6.76c0,1.57.07,3.1.3,4.33h-2.99.01ZM10.9,32.03c-3.59-.07-7.66.56-7.66,4.07,0,2.13,1.42,3.14,3.1,3.14,2.35,0,3.85-1.49,4.37-3.03.11-.34.19-.71.19-1.05v-3.14h0Z"/>
</svg>