<?xml version="1.0" encoding="UTF-8"?>
<svg id="Calque_1" xmlns="http://www.w3.org/2000/svg" version="1.1" viewBox="0 0 161.83 70.37">
  <!-- Generator: Adobe Illustrator 29.8.2, SVG Export Plug-In . SVG Version: 2.1.1 Build 3)  -->
  <defs>
    <style>
      .st0 {
        font-family: MyriadPro-Regular, 'Myriad Pro';
        font-size: 11px;
      }

      .st1 {
        fill: #fff;
      }

      .st2 {
        fill: #97b181;
        stroke: #000;
        stroke-miterlimit: 10;
        stroke-width: .25px;
      }
    </style>
  </defs>
  <path d="M14.32,53.27l-.31-2.7h-.13c-1.19,1.68-3.49,3.18-6.55,3.18-4.33,0-6.55-3.05-6.55-6.15,0-5.17,4.6-8.01,12.87-7.96v-.44c0-1.77-.49-4.95-4.86-4.95-1.99,0-4.07.62-5.57,1.59l-.88-2.57c1.77-1.15,4.33-1.9,7.03-1.9,6.55,0,8.14,4.47,8.14,8.76v8.01c0,1.86.09,3.67.35,5.13h-3.54ZM13.75,42.34c-4.25-.09-9.07.66-9.07,4.82,0,2.52,1.68,3.72,3.67,3.72,2.79,0,4.56-1.77,5.17-3.58.13-.4.22-.84.22-1.24v-3.72Z"/>
  <path d="M42.27,11.92v35.82c0,1.9.04,4.07.18,5.53h-3.49l-.18-3.72h-.09c-1.19,2.39-3.8,4.2-7.3,4.2-5.17,0-9.16-4.38-9.16-10.88-.04-7.12,4.38-11.5,9.6-11.5,3.27,0,5.48,1.55,6.46,3.27h.09V11.92h3.89ZM38.38,40.58c0-.49-.04-1.15-.18-1.64-.57-2.48-2.7-4.51-5.62-4.51-4.02,0-6.41,3.54-6.41,8.27,0,4.33,2.12,7.92,6.32,7.92,2.61,0,5-1.72,5.71-4.64.13-.53.18-1.06.18-1.68v-3.71Z"/>
  <path class="st2" d="M60.58,53.27l-.31-2.7h-.13c-1.19,1.68-3.49,3.18-6.55,3.18-4.33,0-6.55-3.05-6.55-6.15,0-5.17,4.6-8.01,12.87-7.96v-.44c0-1.77-.49-4.95-4.86-4.95-1.99,0-4.07.62-5.57,1.59l-.88-2.57c1.77-1.15,4.33-1.9,7.03-1.9,6.55,0,8.14,4.47,8.14,8.76v8.01c0,1.86.09,3.67.35,5.13h-3.54ZM60.01,42.34c-4.25-.09-9.07.66-9.07,4.82,0,2.52,1.68,3.72,3.67,3.72,2.79,0,4.56-1.77,5.17-3.58.13-.4.22-.84.22-1.24v-3.72Z"/>
  <path class="st2" d="M85.31,52.47c-1.02.53-3.27,1.24-6.15,1.24-6.46,0-10.66-4.38-10.66-10.92s4.51-11.37,11.5-11.37c2.3,0,4.33.57,5.4,1.11l-.88,3.01c-.93-.53-2.39-1.02-4.51-1.02-4.91,0-7.56,3.63-7.56,8.09,0,4.95,3.18,8.01,7.43,8.01,2.21,0,3.67-.57,4.78-1.06l.66,2.92Z"/>
  <path class="st2" d="M95.12,25.72v6.15h5.57v2.96h-5.57v11.54c0,2.65.75,4.16,2.92,4.16,1.02,0,1.77-.13,2.26-.27l.18,2.92c-.75.31-1.95.53-3.45.53-1.81,0-3.27-.57-4.2-1.64-1.11-1.15-1.5-3.05-1.5-5.57v-11.68h-3.32v-2.96h3.32v-5.13l3.8-1.02Z"/>
  <path class="st2" d="M105.07,53.27v-21.41h3.89v21.41h-3.89Z"/>
  <path class="st2" d="M139.7,37.66c0-2.21-.04-4.02-.18-5.79h3.45l.22,3.54h.09c1.06-2.03,3.54-4.02,7.08-4.02,2.96,0,7.56,1.77,7.56,9.11v12.78h-3.89v-12.34c0-3.45-1.28-6.32-4.95-6.32-2.57,0-4.56,1.81-5.22,3.98-.18.49-.27,1.15-.27,1.81v12.87h-3.89v-15.61Z"/>
  <path class="st2" d="M137.58,1.13c.14,1.64.85,12.44-7.41,20.97-9.24,9.55-21.75,8.06-23.08,7.88-.11-1.26-1.05-14.02,9.1-22.76,9.01-7.76,19.79-6.33,21.39-6.1Z"/>
  <path class="st1" d="M107.08,30.03c6.42-12.68,17.27-23.49,30.5-28.9-1.5.9-3.16,1.69-4.61,2.68-10.51,6.54-19.24,15.83-25.89,26.22h0Z"/>
  <text class="st0" transform="translate(.79 66.86)"><tspan x="0" y="0">Ensemble pour une Action Durable</tspan></text>
  <g>
    <path class="st2" d="M133.29,41.74c-.6-.31-.46-.85-.96-1.01-.27-.09-.66.08-1.44.43-.85.38-.93.5-1.31.54-.42.04-.83-.1-1.19-.31-.34-.2-.66-.47-.82-.83-.02-.04-.22-.63.09-1.13.25-.41.57-.31,1.18-.79.33-.26.78-.62.76-1.08-.02-.34-.29-.63-.52-.76-.22-.13-.33-.08-1.22-.22-.46-.07-.56-.11-.66-.15-.03-.02-.46-.22-.67-.6-.37-.66.12-1.53.22-1.71.65-1.16,2.31-1.38,3.22-1.4-1.46-.8-3.19-1.23-5.1-1.23-5.93,0-10.61,4.2-10.61,11.37,0,.63.04,1.24.11,1.83.15-.26.36-.48.62-.64.12-.07.25-.14.38-.13.21.01.37.18.51.35.28.35.54.72.88,1,.34.29.8.48,1.23.37.63-.15,1.14-.86,1.77-.6.21.09.36.28.43.49.25.73-.27,1.46-.13,2.19.1.53.56.94,1.06,1.12.51.18,1.07.15,1.6.05.39-.07.62-.02.79.13.28.24.24.72.24.82-.08.91-1.05,1.88-2.05,2.03-.28.04-.48,0-.75.16-.41.22-.43.81-.73.97,0,0,0,0-.01,0,1.3.58,2.75.88,4.3.88,5.16,0,10.63-3.44,10.66-11.31-.13-.09-.3-.22-.64-.4-.62-.32-.76-.15-1.24-.4ZM121.45,37.65c-.25.3-.71.02-.96.31-.3.35.18.96-.13,1.31-.2.23-.66.26-.87.08-.24-.21-.06-.52-.25-.87-.14-.27-.55-.24-.79-.44-.19-.16-.25-.53-.14-.78.14-.31.54-.39.53-.65,0-.09-.04-.1-.02-.15.07-.16.62.08,1.35.06.67-.01.83-.22,1.08-.07.35.22.47.89.21,1.19Z"/>
    <path d="M120.94,52c.28-.15.48-.12.75-.16,1-.15,1.97-1.12,2.05-2.03,0-.1.05-.58-.24-.82-.18-.15-.4-.2-.79-.13-.53.1-1.09.12-1.6-.05-.51-.18-.96-.59-1.06-1.12-.14-.72.38-1.46.13-2.19-.07-.21-.22-.4-.43-.49-.62-.26-1.14.45-1.77.6-.43.1-.89-.09-1.23-.37-.34-.29-.6-.66-.88-1-.13-.16-.3-.33-.51-.35-.14,0-.27.05-.38.13-.25.16-.46.38-.62.64.52,4.01,2.74,6.93,5.84,8.3,0,0,0,0,.01,0,.3-.15.31-.74.73-.97Z"/>
    <path d="M129.97,32.7s0,0-.01,0c-.91.03-2.56.24-3.22,1.4-.1.18-.59,1.05-.22,1.71.21.38.63.58.67.6.1.05.2.08.66.15.9.14,1,.09,1.22.22.22.14.5.42.52.76.02.46-.43.82-.76,1.08-.61.49-.93.39-1.18.79-.31.5-.1,1.09-.09,1.13.22.47.68.78,1.13.99.3.13.63.19.95.15s.44-.17,1.24-.53c.78-.35,1.17-.52,1.44-.43.49.16.35.69.96,1.01.47.25.61.07,1.24.4.32.16.49.29.61.38l.03-.02c0-4.51-1.96-8.03-5.2-9.79Z"/>
    <path d="M121.24,36.46c-.25-.16-.41.05-1.08.07-.73.02-1.28-.22-1.35-.06-.02.04.02.06.02.15,0,.27-.39.35-.53.65-.11.25-.05.62.14.78.24.19.64.17.79.44.19.35.01.66.25.87.21.18.67.15.87-.08.31-.35-.18-.96.13-1.31.25-.29.71-.02.96-.31.25-.3.14-.97-.21-1.19Z"/>
  </g>
</svg>